<svg xmlns="http://www.w3.org/2000/svg" xmlns:xlink="http://www.w3.org/1999/xlink" width="500" zoomAndPan="magnify" viewBox="0 0 375 374.999991" height="500" preserveAspectRatio="xMidYMid meet" version="1.0"><defs><g/><clipPath id="2856fcabe4"><path d="M 11.457031 53.460938 L 74.925781 53.460938 L 74.925781 282.960938 L 11.457031 282.960938 Z M 11.457031 53.460938 " clip-rule="nonzero"/></clipPath><clipPath id="b8cd080c4d"><path d="M 300.226562 53.757812 L 363.226562 53.757812 L 363.226562 283 L 300.226562 283 Z M 300.226562 53.757812 " clip-rule="nonzero"/></clipPath><clipPath id="d4048182bb"><path d="M 81.152344 72.644531 L 294.152344 72.644531 L 294.152344 263.894531 L 81.152344 263.894531 Z M 81.152344 72.644531 " clip-rule="nonzero"/></clipPath></defs><g clip-path="url(#2856fcabe4)"><path fill="#5798d8" d="M 62.914062 283 L 74.761719 283 L 74.761719 270.667969 L 66.785156 270.667969 C 52.277344 270.667969 48.652344 263.414062 48.652344 246.25 C 48.652344 230.050781 50.101562 215.785156 50.101562 197.890625 C 50.101562 180.484375 45.75 171.777344 34.144531 168.636719 L 34.144531 167.667969 C 45.75 164.523438 50.101562 155.820312 50.101562 138.652344 C 50.101562 120.519531 48.652344 106.496094 48.652344 90.296875 C 48.652344 72.886719 52.277344 65.875 66.785156 65.875 L 74.761719 65.875 L 74.761719 53.304688 L 62.914062 53.304688 C 41.878906 53.304688 31.726562 61.523438 31.726562 89.089844 C 31.726562 108.429688 34.144531 122.453125 34.144531 140.832031 C 34.144531 150.984375 29.308594 161.382812 11.414062 161.382812 L 11.414062 174.921875 C 29.308594 175.164062 34.144531 185.5625 34.144531 195.714844 C 34.144531 213.609375 31.726562 227.875 31.726562 247.457031 C 31.726562 275.019531 41.878906 283 62.914062 283 Z M 62.914062 283 " fill-opacity="1" fill-rule="nonzero"/></g><g clip-path="url(#b8cd080c4d)"><path fill="#5798d8" d="M 312.207031 282.707031 L 300.390625 282.707031 L 300.390625 270.410156 L 308.347656 270.410156 C 322.816406 270.410156 326.433594 263.171875 326.433594 246.050781 C 326.433594 229.894531 324.988281 215.664062 324.988281 197.820312 C 324.988281 180.457031 329.328125 171.773438 340.902344 168.636719 L 340.902344 167.675781 C 329.328125 164.539062 324.988281 155.855469 324.988281 138.734375 C 324.988281 120.648438 326.433594 106.660156 326.433594 90.503906 C 326.433594 73.140625 322.816406 66.144531 308.347656 66.144531 L 300.390625 66.144531 L 300.390625 53.605469 L 312.207031 53.605469 C 333.1875 53.605469 343.316406 61.804688 343.316406 89.296875 C 343.316406 108.589844 340.902344 122.578125 340.902344 140.90625 C 340.902344 151.035156 345.726562 161.402344 363.574219 161.402344 L 363.574219 174.910156 C 345.726562 175.148438 340.902344 185.519531 340.902344 195.648438 C 340.902344 213.496094 343.316406 227.722656 343.316406 247.257812 C 343.316406 274.75 333.1875 282.707031 312.207031 282.707031 Z M 312.207031 282.707031 " fill-opacity="1" fill-rule="nonzero"/></g><path fill="#c5ddf4" d="M 199.578125 113.871094 L 177.003906 136.394531 L 199.578125 158.917969 C 193.824219 164.6875 185.808594 168.269531 177.003906 168.269531 C 159.363281 168.269531 145.054688 153.992188 145.054688 136.394531 C 145.054688 118.796875 159.363281 104.519531 177.003906 104.519531 C 185.808594 104.519531 193.824219 108.105469 199.578125 113.871094 " fill-opacity="1" fill-rule="nonzero"/><path fill="#c5ddf4" d="M 201.851562 239.105469 L 201.851562 246.1875 C 201.851562 248.136719 200.257812 249.730469 198.300781 249.730469 L 177.003906 249.730469 C 175.046875 249.730469 173.453125 248.136719 173.453125 246.1875 L 173.453125 239.105469 L 84.703125 239.105469 L 84.703125 256.8125 C 84.703125 258.761719 86.296875 260.355469 88.253906 260.355469 L 287.050781 260.355469 C 289.007812 260.355469 290.601562 258.761719 290.601562 256.8125 L 290.601562 239.105469 L 201.851562 239.105469 " fill-opacity="1" fill-rule="nonzero"/><path fill="#c5ddf4" d="M 269.300781 196.605469 L 290.601562 239.105469 L 84.703125 239.105469 L 106.003906 196.605469 L 269.300781 196.605469 " fill-opacity="1" fill-rule="nonzero"/><g clip-path="url(#d4048182bb)"><path fill="#5798d8" d="M 88.253906 256.8125 L 88.253906 242.644531 L 169.902344 242.644531 L 169.902344 246.1875 C 169.902344 250.089844 173.09375 253.269531 177.003906 253.269531 L 198.300781 253.269531 C 202.214844 253.269531 205.402344 250.089844 205.402344 246.1875 L 205.402344 242.644531 L 287.050781 242.644531 L 287.050781 256.8125 Z M 109.554688 83.269531 C 109.554688 81.320312 111.148438 79.730469 113.101562 79.730469 L 262.203125 79.730469 C 264.15625 79.730469 265.753906 81.320312 265.753906 83.269531 L 265.753906 193.0625 L 109.554688 193.0625 Z M 90.445312 235.5625 L 108.195312 200.144531 L 267.109375 200.144531 L 284.859375 235.5625 Z M 177.003906 242.644531 L 198.300781 242.644531 L 198.300781 246.1875 L 177.003906 246.1875 Z M 293.777344 237.511719 L 272.851562 195.773438 L 272.851562 83.269531 C 272.851562 77.40625 268.082031 72.644531 262.203125 72.644531 L 113.101562 72.644531 C 107.222656 72.644531 102.453125 77.40625 102.453125 83.269531 L 102.453125 195.773438 L 81.527344 237.511719 C 81.277344 238.011719 81.152344 238.550781 81.152344 239.105469 L 81.152344 256.8125 C 81.152344 260.714844 84.34375 263.894531 88.253906 263.894531 L 287.050781 263.894531 C 290.960938 263.894531 294.152344 260.714844 294.152344 256.8125 L 294.152344 239.105469 C 294.152344 238.550781 294.027344 238.011719 293.777344 237.511719 " fill-opacity="1" fill-rule="nonzero"/></g><path fill="#5798d8" d="M 109.554688 228.480469 L 116.652344 228.480469 L 116.652344 221.394531 L 109.554688 221.394531 L 109.554688 228.480469 " fill-opacity="1" fill-rule="nonzero"/><path fill="#5798d8" d="M 123.753906 228.480469 L 130.851562 228.480469 L 130.851562 221.394531 L 123.753906 221.394531 L 123.753906 228.480469 " fill-opacity="1" fill-rule="nonzero"/><path fill="#5798d8" d="M 137.953125 228.480469 L 237.351562 228.480469 L 237.351562 221.394531 L 137.953125 221.394531 L 137.953125 228.480469 " fill-opacity="1" fill-rule="nonzero"/><path fill="#5798d8" d="M 244.453125 228.480469 L 251.550781 228.480469 L 251.550781 221.394531 L 244.453125 221.394531 L 244.453125 228.480469 " fill-opacity="1" fill-rule="nonzero"/><path fill="#5798d8" d="M 258.652344 228.480469 L 265.753906 228.480469 L 265.753906 221.394531 L 258.652344 221.394531 L 258.652344 228.480469 " fill-opacity="1" fill-rule="nonzero"/><path fill="#5798d8" d="M 127.304688 214.3125 L 134.402344 214.3125 L 134.402344 207.230469 L 127.304688 207.230469 L 127.304688 214.3125 " fill-opacity="1" fill-rule="nonzero"/><path fill="#5798d8" d="M 113.101562 214.3125 L 120.203125 214.3125 L 120.203125 207.230469 L 113.101562 207.230469 L 113.101562 214.3125 " fill-opacity="1" fill-rule="nonzero"/><path fill="#5798d8" d="M 148.601562 207.230469 L 141.503906 207.230469 L 141.503906 214.3125 L 148.601562 214.3125 L 148.601562 207.230469 " fill-opacity="1" fill-rule="nonzero"/><path fill="#5798d8" d="M 162.800781 207.230469 L 155.703125 207.230469 L 155.703125 214.3125 L 162.800781 214.3125 L 162.800781 207.230469 " fill-opacity="1" fill-rule="nonzero"/><path fill="#5798d8" d="M 177.003906 207.230469 L 169.902344 207.230469 L 169.902344 214.3125 L 177.003906 214.3125 L 177.003906 207.230469 " fill-opacity="1" fill-rule="nonzero"/><path fill="#5798d8" d="M 191.203125 207.230469 L 184.101562 207.230469 L 184.101562 214.3125 L 191.203125 214.3125 L 191.203125 207.230469 " fill-opacity="1" fill-rule="nonzero"/><path fill="#5798d8" d="M 205.402344 207.230469 L 198.300781 207.230469 L 198.300781 214.3125 L 205.402344 214.3125 L 205.402344 207.230469 " fill-opacity="1" fill-rule="nonzero"/><path fill="#5798d8" d="M 219.601562 207.230469 L 212.503906 207.230469 L 212.503906 214.3125 L 219.601562 214.3125 L 219.601562 207.230469 " fill-opacity="1" fill-rule="nonzero"/><path fill="#5798d8" d="M 233.800781 207.230469 L 226.703125 207.230469 L 226.703125 214.3125 L 233.800781 214.3125 L 233.800781 207.230469 " fill-opacity="1" fill-rule="nonzero"/><path fill="#5798d8" d="M 248.003906 207.230469 L 240.902344 207.230469 L 240.902344 214.3125 L 248.003906 214.3125 L 248.003906 207.230469 " fill-opacity="1" fill-rule="nonzero"/><path fill="#5798d8" d="M 262.203125 207.230469 L 255.101562 207.230469 L 255.101562 214.3125 L 262.203125 214.3125 L 262.203125 207.230469 " fill-opacity="1" fill-rule="nonzero"/><path fill="#5798d8" d="M 251.550781 178.894531 L 123.753906 178.894531 L 123.753906 93.894531 L 251.550781 93.894531 Z M 255.101562 86.8125 L 120.203125 86.8125 C 118.246094 86.8125 116.652344 88.402344 116.652344 90.355469 L 116.652344 182.4375 C 116.652344 184.386719 118.246094 185.980469 120.203125 185.980469 L 255.101562 185.980469 C 257.058594 185.980469 258.652344 184.386719 258.652344 182.4375 L 258.652344 90.355469 C 258.652344 88.402344 257.058594 86.8125 255.101562 86.8125 " fill-opacity="1" fill-rule="nonzero"/><path fill="#5798d8" d="M 177.003906 115.144531 L 169.902344 115.144531 L 169.902344 122.230469 L 177.003906 122.230469 L 177.003906 115.144531 " fill-opacity="1" fill-rule="nonzero"/><path fill="#5798d8" d="M 177.003906 108.0625 C 183.410156 108.0625 189.46875 110.152344 194.417969 114.011719 L 174.492188 133.890625 C 173.105469 135.273438 173.105469 137.515625 174.492188 138.898438 L 194.417969 158.78125 C 189.46875 162.640625 183.410156 164.730469 177.003906 164.730469 C 161.347656 164.730469 148.601562 152.015625 148.601562 136.394531 C 148.601562 120.777344 161.347656 108.0625 177.003906 108.0625 Z M 177.003906 171.8125 C 186.515625 171.8125 195.417969 168.117188 202.101562 161.421875 C 203.476562 160.023438 203.476562 157.796875 202.089844 156.414062 L 182.023438 136.394531 L 202.089844 116.375 C 203.476562 114.992188 203.476562 112.765625 202.101562 111.367188 C 195.417969 104.671875 186.515625 100.980469 177.003906 100.980469 C 157.421875 100.980469 141.503906 116.859375 141.503906 136.394531 C 141.503906 155.929688 157.421875 171.8125 177.003906 171.8125 " fill-opacity="1" fill-rule="nonzero"/><path fill="#5798d8" d="M 201.851562 139.9375 L 201.851562 132.855469 L 194.753906 132.855469 L 194.753906 139.9375 L 201.851562 139.9375 " fill-opacity="1" fill-rule="nonzero"/><path fill="#5798d8" d="M 216.050781 132.855469 L 208.953125 132.855469 L 208.953125 139.9375 L 216.050781 139.9375 L 216.050781 132.855469 " fill-opacity="1" fill-rule="nonzero"/><path fill="#5798d8" d="M 230.253906 132.855469 L 223.152344 132.855469 L 223.152344 139.9375 L 230.253906 139.9375 L 230.253906 132.855469 " fill-opacity="1" fill-rule="nonzero"/><g fill="#5798d8" fill-opacity="1"><g transform="translate(44.261931, 314.518149)"><g><path d="M 12.203125 -16.5625 L 7.25 0 L 5.109375 0 L 0.28125 -16.5625 L 2.21875 -16.5625 L 6.203125 -2.34375 L 6.375 -2.34375 L 10.359375 -16.5625 Z M 12.203125 -16.5625 "/></g></g></g><g fill="#5798d8" fill-opacity="1"><g transform="translate(56.73478, 314.518149)"><g><path d="M 3.21875 -14.421875 L 1.5 -14.421875 L 1.5 -16.8125 L 3.21875 -16.8125 Z M 3.21875 0 L 1.5 0 L 1.5 -12.34375 L 3.21875 -12.34375 Z M 3.21875 0 "/></g></g></g><g fill="#5798d8" fill-opacity="1"><g transform="translate(61.453543, 314.518149)"><g><path d="M 4.90625 -12.609375 C 5.269531 -12.609375 5.679688 -12.5625 6.140625 -12.46875 C 6.609375 -12.382812 7.007812 -12.226562 7.34375 -12 C 7.6875 -11.769531 7.859375 -11.441406 7.859375 -11.015625 L 7.90625 -11.015625 C 7.894531 -11.710938 7.882812 -12.328125 7.875 -12.859375 C 7.863281 -13.390625 7.859375 -13.820312 7.859375 -14.15625 L 7.859375 -17.859375 L 9.59375 -17.859375 L 9.59375 0 L 7.90625 0 L 7.90625 -1.453125 C 7.90625 -1.015625 7.625 -0.625 7.0625 -0.28125 C 6.5 0.0703125 5.742188 0.25 4.796875 0.25 C 3.472656 0.25 2.53125 -0.03125 1.96875 -0.59375 C 1.414062 -1.164062 1.140625 -2.191406 1.140625 -3.671875 L 1.140625 -9.109375 C 1.140625 -10.054688 1.289062 -10.78125 1.59375 -11.28125 C 1.894531 -11.789062 2.320312 -12.140625 2.875 -12.328125 C 3.4375 -12.515625 4.113281 -12.609375 4.90625 -12.609375 Z M 5.171875 -1.328125 C 5.671875 -1.328125 6.125 -1.367188 6.53125 -1.453125 C 6.9375 -1.535156 7.257812 -1.710938 7.5 -1.984375 C 7.738281 -2.265625 7.859375 -2.679688 7.859375 -3.234375 L 7.859375 -9.34375 C 7.859375 -10.445312 7.015625 -11 5.328125 -11 C 4.296875 -11 3.625 -10.894531 3.3125 -10.6875 C 3.007812 -10.488281 2.859375 -10.039062 2.859375 -9.34375 L 2.859375 -3.234375 C 2.859375 -2.398438 3.070312 -1.875 3.5 -1.65625 C 3.925781 -1.4375 4.484375 -1.328125 5.171875 -1.328125 Z M 5.171875 -1.328125 "/></g></g></g><g fill="#5798d8" fill-opacity="1"><g transform="translate(72.370467, 314.518149)"><g><path d="M 5.25 -12.609375 C 6.101562 -12.609375 6.8125 -12.484375 7.375 -12.234375 C 7.945312 -11.984375 8.378906 -11.554688 8.671875 -10.953125 C 8.960938 -10.347656 9.109375 -9.492188 9.109375 -8.390625 L 9.109375 -5.671875 L 2.890625 -5.671875 L 2.890625 -3.796875 C 2.890625 -2.828125 3.148438 -2.1875 3.671875 -1.875 C 4.203125 -1.5625 4.859375 -1.40625 5.640625 -1.40625 C 6.523438 -1.40625 7.5625 -1.609375 8.75 -2.015625 L 8.75 -0.25 C 7.570312 0.0820312 6.457031 0.25 5.40625 0.25 C 2.5625 0.25 1.140625 -1.003906 1.140625 -3.515625 L 1.140625 -8.390625 C 1.140625 -9.492188 1.300781 -10.347656 1.625 -10.953125 C 1.957031 -11.554688 2.425781 -11.984375 3.03125 -12.234375 C 3.644531 -12.484375 4.382812 -12.609375 5.25 -12.609375 Z M 5.15625 -11.078125 C 4.476562 -11.078125 3.929688 -10.960938 3.515625 -10.734375 C 3.097656 -10.503906 2.890625 -9.960938 2.890625 -9.109375 L 2.890625 -7.171875 L 7.40625 -7.171875 L 7.40625 -9.109375 C 7.40625 -9.960938 7.203125 -10.503906 6.796875 -10.734375 C 6.398438 -10.960938 5.851562 -11.078125 5.15625 -11.078125 Z M 5.15625 -11.078125 "/></g></g></g><g fill="#5798d8" fill-opacity="1"><g transform="translate(82.598703, 314.518149)"><g><path d="M 9.703125 -8.1875 L 9.703125 -3.90625 C 9.703125 -2.863281 9.566406 -2.023438 9.296875 -1.390625 C 9.035156 -0.753906 8.609375 -0.316406 8.015625 -0.078125 C 7.566406 0.0859375 7.164062 0.179688 6.8125 0.203125 C 6.46875 0.234375 6 0.25 5.40625 0.25 C 4.675781 0.25 4.101562 0.222656 3.6875 0.171875 C 3.269531 0.128906 2.820312 -0.046875 2.34375 -0.359375 C 1.90625 -0.628906 1.59375 -1.0625 1.40625 -1.65625 C 1.226562 -2.25 1.140625 -3 1.140625 -3.90625 L 1.140625 -8.1875 C 1.140625 -9.257812 1.265625 -10.148438 1.515625 -10.859375 C 1.773438 -11.566406 2.210938 -12.035156 2.828125 -12.265625 C 3.273438 -12.453125 3.664062 -12.554688 4 -12.578125 C 4.34375 -12.597656 4.8125 -12.609375 5.40625 -12.609375 C 6.019531 -12.609375 6.492188 -12.597656 6.828125 -12.578125 C 7.160156 -12.554688 7.554688 -12.453125 8.015625 -12.265625 C 8.441406 -12.097656 8.753906 -11.859375 8.953125 -11.546875 C 9.160156 -11.234375 9.332031 -10.800781 9.46875 -10.25 C 9.625 -9.695312 9.703125 -9.007812 9.703125 -8.1875 Z M 7.9375 -3.578125 L 7.9375 -8.578125 C 7.9375 -9.710938 7.757812 -10.414062 7.40625 -10.6875 C 7.082031 -10.957031 6.414062 -11.09375 5.40625 -11.09375 C 4.414062 -11.09375 3.753906 -10.957031 3.421875 -10.6875 C 3.078125 -10.394531 2.90625 -9.691406 2.90625 -8.578125 L 2.90625 -3.578125 C 2.90625 -3.066406 2.945312 -2.644531 3.03125 -2.3125 C 3.113281 -1.976562 3.285156 -1.734375 3.546875 -1.578125 C 3.835938 -1.410156 4.109375 -1.3125 4.359375 -1.28125 C 4.617188 -1.257812 4.96875 -1.25 5.40625 -1.25 C 5.863281 -1.25 6.21875 -1.257812 6.46875 -1.28125 C 6.726562 -1.3125 7.003906 -1.410156 7.296875 -1.578125 C 7.554688 -1.734375 7.726562 -1.976562 7.8125 -2.3125 C 7.894531 -2.644531 7.9375 -3.066406 7.9375 -3.578125 Z M 7.9375 -3.578125 "/></g></g></g><g fill="#5798d8" fill-opacity="1"><g transform="translate(93.464608, 314.518149)"><g/></g></g><g fill="#5798d8" fill-opacity="1"><g transform="translate(97.877291, 314.518149)"><g><path d="M 11.234375 -14.5 C 10.953125 -14.582031 10.539062 -14.671875 10 -14.765625 C 9.457031 -14.859375 8.90625 -14.9375 8.34375 -15 C 7.78125 -15.070312 7.328125 -15.109375 6.984375 -15.109375 C 4.367188 -15.109375 3.0625 -14.101562 3.0625 -12.09375 L 3.0625 -4.28125 C 3.0625 -3.65625 3.191406 -3.15625 3.453125 -2.78125 C 3.722656 -2.40625 4.0625 -2.128906 4.46875 -1.953125 C 4.875 -1.773438 5.289062 -1.644531 5.71875 -1.5625 C 5.914062 -1.519531 6.128906 -1.484375 6.359375 -1.453125 C 6.585938 -1.429688 6.820312 -1.421875 7.0625 -1.421875 C 7.914062 -1.421875 8.828125 -1.578125 9.796875 -1.890625 L 9.796875 -7.6875 L 7.546875 -7.6875 L 6.890625 -9.421875 L 11.53125 -9.421875 L 11.53125 -0.515625 C 9.84375 -0.00390625 8.3125 0.25 6.9375 0.25 C 5.78125 0.25 4.710938 0.0703125 3.734375 -0.28125 C 2.753906 -0.632812 2.046875 -1.304688 1.609375 -2.296875 C 1.347656 -2.859375 1.21875 -3.503906 1.21875 -4.234375 L 1.21875 -12.0625 C 1.21875 -13.101562 1.40625 -13.929688 1.78125 -14.546875 C 2.15625 -15.160156 2.640625 -15.628906 3.234375 -15.953125 C 3.835938 -16.273438 4.46875 -16.503906 5.125 -16.640625 C 5.664062 -16.753906 6.269531 -16.8125 6.9375 -16.8125 C 7.707031 -16.8125 8.445312 -16.773438 9.15625 -16.703125 C 9.875 -16.640625 10.566406 -16.539062 11.234375 -16.40625 Z M 11.234375 -14.5 "/></g></g></g><g fill="#5798d8" fill-opacity="1"><g transform="translate(110.630711, 314.518149)"><g><path d="M 8.796875 0 L 7.140625 0 L 7.140625 -1.171875 C 6.992188 -0.222656 6.0625 0.25 4.34375 0.25 C 3.082031 0.25 2.195312 -0.0078125 1.6875 -0.53125 C 1.207031 -1.03125 0.96875 -2.078125 0.96875 -3.671875 C 0.96875 -5.046875 1.195312 -6 1.65625 -6.53125 C 2.113281 -7.039062 3 -7.296875 4.3125 -7.296875 L 7.09375 -7.296875 L 7.09375 -9.265625 C 7.09375 -9.941406 6.929688 -10.398438 6.609375 -10.640625 C 6.285156 -10.878906 5.695312 -11 4.84375 -11 C 3.894531 -11 2.832031 -10.894531 1.65625 -10.6875 L 1.65625 -12.375 C 2.9375 -12.53125 4.085938 -12.609375 5.109375 -12.609375 C 6.648438 -12.609375 7.648438 -12.359375 8.109375 -11.859375 C 8.566406 -11.347656 8.796875 -10.300781 8.796875 -8.71875 Z M 2.65625 -3.59375 C 2.65625 -2.707031 2.753906 -2.09375 2.953125 -1.75 C 3.160156 -1.414062 3.601562 -1.25 4.28125 -1.25 L 4.640625 -1.25 C 4.960938 -1.25 5.316406 -1.257812 5.703125 -1.28125 C 6.085938 -1.3125 6.414062 -1.414062 6.6875 -1.59375 C 6.957031 -1.769531 7.09375 -2.070312 7.09375 -2.5 L 7.09375 -5.875 L 4.421875 -5.875 C 3.910156 -5.875 3.523438 -5.820312 3.265625 -5.71875 C 3.015625 -5.613281 2.847656 -5.40625 2.765625 -5.09375 C 2.691406 -4.78125 2.65625 -4.28125 2.65625 -3.59375 Z M 2.65625 -3.59375 "/></g></g></g><g fill="#5798d8" fill-opacity="1"><g transform="translate(120.935475, 314.518149)"><g><path d="M 12.40625 -12.609375 C 13.476562 -12.609375 14.265625 -12.347656 14.765625 -11.828125 C 15.273438 -11.304688 15.53125 -10.382812 15.53125 -9.0625 L 15.53125 0 L 13.828125 0 L 13.828125 -8.90625 C 13.828125 -9.925781 13.519531 -10.554688 12.90625 -10.796875 C 12.632812 -10.898438 12.28125 -10.953125 11.84375 -10.953125 C 10.851562 -10.953125 10.195312 -10.804688 9.875 -10.515625 C 9.601562 -10.242188 9.46875 -9.707031 9.46875 -8.90625 L 9.46875 0 L 7.734375 0 L 7.734375 -8.90625 C 7.734375 -9.71875 7.5625 -10.257812 7.21875 -10.53125 C 6.875 -10.8125 6.390625 -10.953125 5.765625 -10.953125 C 4.722656 -10.953125 4.039062 -10.8125 3.71875 -10.53125 C 3.382812 -10.25 3.21875 -9.707031 3.21875 -8.90625 L 3.21875 0 L 1.5 0 L 1.5 -12.34375 L 3.21875 -12.34375 L 3.21875 -10.84375 C 3.40625 -12.019531 4.441406 -12.609375 6.328125 -12.609375 C 7.890625 -12.609375 8.859375 -12.046875 9.234375 -10.921875 C 9.335938 -11.359375 9.550781 -11.695312 9.875 -11.9375 C 10.195312 -12.175781 10.585938 -12.347656 11.046875 -12.453125 C 11.503906 -12.554688 11.957031 -12.609375 12.40625 -12.609375 Z M 12.40625 -12.609375 "/></g></g></g><g fill="#5798d8" fill-opacity="1"><g transform="translate(137.974047, 314.518149)"><g><path d="M 5.25 -12.609375 C 6.101562 -12.609375 6.8125 -12.484375 7.375 -12.234375 C 7.945312 -11.984375 8.378906 -11.554688 8.671875 -10.953125 C 8.960938 -10.347656 9.109375 -9.492188 9.109375 -8.390625 L 9.109375 -5.671875 L 2.890625 -5.671875 L 2.890625 -3.796875 C 2.890625 -2.828125 3.148438 -2.1875 3.671875 -1.875 C 4.203125 -1.5625 4.859375 -1.40625 5.640625 -1.40625 C 6.523438 -1.40625 7.5625 -1.609375 8.75 -2.015625 L 8.75 -0.25 C 7.570312 0.0820312 6.457031 0.25 5.40625 0.25 C 2.5625 0.25 1.140625 -1.003906 1.140625 -3.515625 L 1.140625 -8.390625 C 1.140625 -9.492188 1.300781 -10.347656 1.625 -10.953125 C 1.957031 -11.554688 2.425781 -11.984375 3.03125 -12.234375 C 3.644531 -12.484375 4.382812 -12.609375 5.25 -12.609375 Z M 5.15625 -11.078125 C 4.476562 -11.078125 3.929688 -10.960938 3.515625 -10.734375 C 3.097656 -10.503906 2.890625 -9.960938 2.890625 -9.109375 L 2.890625 -7.171875 L 7.40625 -7.171875 L 7.40625 -9.109375 C 7.40625 -9.960938 7.203125 -10.503906 6.796875 -10.734375 C 6.398438 -10.960938 5.851562 -11.078125 5.15625 -11.078125 Z M 5.15625 -11.078125 "/></g></g></g><g fill="#5798d8" fill-opacity="1"><g transform="translate(148.202283, 314.518149)"><g/></g></g><g fill="#5798d8" fill-opacity="1"><g transform="translate(152.614966, 314.518149)"><g><path d="M 11.765625 -11.8125 L 11.765625 -4.484375 C 11.765625 -1.492188 10.03125 0 6.5625 0 L 1.609375 0 L 1.609375 -16.5625 L 6.5625 -16.5625 C 10.03125 -16.5625 11.765625 -14.976562 11.765625 -11.8125 Z M 10 -11.84375 C 10 -12.6875 9.835938 -13.320312 9.515625 -13.75 C 9.191406 -14.175781 8.769531 -14.460938 8.25 -14.609375 C 7.726562 -14.765625 7.15625 -14.84375 6.53125 -14.84375 L 3.46875 -14.84375 L 3.46875 -1.6875 L 6.4375 -1.6875 C 8.8125 -1.6875 10 -2.640625 10 -4.546875 Z M 10 -11.84375 "/></g></g></g><g fill="#5798d8" fill-opacity="1"><g transform="translate(165.597938, 314.518149)"><g><path d="M 5.25 -12.609375 C 6.101562 -12.609375 6.8125 -12.484375 7.375 -12.234375 C 7.945312 -11.984375 8.378906 -11.554688 8.671875 -10.953125 C 8.960938 -10.347656 9.109375 -9.492188 9.109375 -8.390625 L 9.109375 -5.671875 L 2.890625 -5.671875 L 2.890625 -3.796875 C 2.890625 -2.828125 3.148438 -2.1875 3.671875 -1.875 C 4.203125 -1.5625 4.859375 -1.40625 5.640625 -1.40625 C 6.523438 -1.40625 7.5625 -1.609375 8.75 -2.015625 L 8.75 -0.25 C 7.570312 0.0820312 6.457031 0.25 5.40625 0.25 C 2.5625 0.25 1.140625 -1.003906 1.140625 -3.515625 L 1.140625 -8.390625 C 1.140625 -9.492188 1.300781 -10.347656 1.625 -10.953125 C 1.957031 -11.554688 2.425781 -11.984375 3.03125 -12.234375 C 3.644531 -12.484375 4.382812 -12.609375 5.25 -12.609375 Z M 5.15625 -11.078125 C 4.476562 -11.078125 3.929688 -10.960938 3.515625 -10.734375 C 3.097656 -10.503906 2.890625 -9.960938 2.890625 -9.109375 L 2.890625 -7.171875 L 7.40625 -7.171875 L 7.40625 -9.109375 C 7.40625 -9.960938 7.203125 -10.503906 6.796875 -10.734375 C 6.398438 -10.960938 5.851562 -11.078125 5.15625 -11.078125 Z M 5.15625 -11.078125 "/></g></g></g><g fill="#5798d8" fill-opacity="1"><g transform="translate(175.826173, 314.518149)"><g><path d="M 8.75 -12.34375 L 5.515625 0 L 3.4375 0 L 0.125 -12.34375 L 1.9375 -12.34375 L 4.484375 -1.984375 L 4.59375 -1.984375 L 7.09375 -12.34375 Z M 8.75 -12.34375 "/></g></g></g><g fill="#5798d8" fill-opacity="1"><g transform="translate(184.677049, 314.518149)"><g><path d="M 5.25 -12.609375 C 6.101562 -12.609375 6.8125 -12.484375 7.375 -12.234375 C 7.945312 -11.984375 8.378906 -11.554688 8.671875 -10.953125 C 8.960938 -10.347656 9.109375 -9.492188 9.109375 -8.390625 L 9.109375 -5.671875 L 2.890625 -5.671875 L 2.890625 -3.796875 C 2.890625 -2.828125 3.148438 -2.1875 3.671875 -1.875 C 4.203125 -1.5625 4.859375 -1.40625 5.640625 -1.40625 C 6.523438 -1.40625 7.5625 -1.609375 8.75 -2.015625 L 8.75 -0.25 C 7.570312 0.0820312 6.457031 0.25 5.40625 0.25 C 2.5625 0.25 1.140625 -1.003906 1.140625 -3.515625 L 1.140625 -8.390625 C 1.140625 -9.492188 1.300781 -10.347656 1.625 -10.953125 C 1.957031 -11.554688 2.425781 -11.984375 3.03125 -12.234375 C 3.644531 -12.484375 4.382812 -12.609375 5.25 -12.609375 Z M 5.15625 -11.078125 C 4.476562 -11.078125 3.929688 -10.960938 3.515625 -10.734375 C 3.097656 -10.503906 2.890625 -9.960938 2.890625 -9.109375 L 2.890625 -7.171875 L 7.40625 -7.171875 L 7.40625 -9.109375 C 7.40625 -9.960938 7.203125 -10.503906 6.796875 -10.734375 C 6.398438 -10.960938 5.851562 -11.078125 5.15625 -11.078125 Z M 5.15625 -11.078125 "/></g></g></g><g fill="#5798d8" fill-opacity="1"><g transform="translate(194.905284, 314.518149)"><g><path d="M 3.21875 0 L 1.5 0 L 1.5 -17.859375 L 3.21875 -17.859375 Z M 3.21875 0 "/></g></g></g><g fill="#5798d8" fill-opacity="1"><g transform="translate(199.624047, 314.518149)"><g><path d="M 9.703125 -8.1875 L 9.703125 -3.90625 C 9.703125 -2.863281 9.566406 -2.023438 9.296875 -1.390625 C 9.035156 -0.753906 8.609375 -0.316406 8.015625 -0.078125 C 7.566406 0.0859375 7.164062 0.179688 6.8125 0.203125 C 6.46875 0.234375 6 0.25 5.40625 0.25 C 4.675781 0.25 4.101562 0.222656 3.6875 0.171875 C 3.269531 0.128906 2.820312 -0.046875 2.34375 -0.359375 C 1.90625 -0.628906 1.59375 -1.0625 1.40625 -1.65625 C 1.226562 -2.25 1.140625 -3 1.140625 -3.90625 L 1.140625 -8.1875 C 1.140625 -9.257812 1.265625 -10.148438 1.515625 -10.859375 C 1.773438 -11.566406 2.210938 -12.035156 2.828125 -12.265625 C 3.273438 -12.453125 3.664062 -12.554688 4 -12.578125 C 4.34375 -12.597656 4.8125 -12.609375 5.40625 -12.609375 C 6.019531 -12.609375 6.492188 -12.597656 6.828125 -12.578125 C 7.160156 -12.554688 7.554688 -12.453125 8.015625 -12.265625 C 8.441406 -12.097656 8.753906 -11.859375 8.953125 -11.546875 C 9.160156 -11.234375 9.332031 -10.800781 9.46875 -10.25 C 9.625 -9.695312 9.703125 -9.007812 9.703125 -8.1875 Z M 7.9375 -3.578125 L 7.9375 -8.578125 C 7.9375 -9.710938 7.757812 -10.414062 7.40625 -10.6875 C 7.082031 -10.957031 6.414062 -11.09375 5.40625 -11.09375 C 4.414062 -11.09375 3.753906 -10.957031 3.421875 -10.6875 C 3.078125 -10.394531 2.90625 -9.691406 2.90625 -8.578125 L 2.90625 -3.578125 C 2.90625 -3.066406 2.945312 -2.644531 3.03125 -2.3125 C 3.113281 -1.976562 3.285156 -1.734375 3.546875 -1.578125 C 3.835938 -1.410156 4.109375 -1.3125 4.359375 -1.28125 C 4.617188 -1.257812 4.96875 -1.25 5.40625 -1.25 C 5.863281 -1.25 6.21875 -1.257812 6.46875 -1.28125 C 6.726562 -1.3125 7.003906 -1.410156 7.296875 -1.578125 C 7.554688 -1.734375 7.726562 -1.976562 7.8125 -2.3125 C 7.894531 -2.644531 7.9375 -3.066406 7.9375 -3.578125 Z M 7.9375 -3.578125 "/></g></g></g><g fill="#5798d8" fill-opacity="1"><g transform="translate(210.489953, 314.518149)"><g><path d="M 5.640625 0.25 C 5.191406 0.25 4.707031 0.164062 4.1875 0 C 3.675781 -0.15625 3.351562 -0.421875 3.21875 -0.796875 L 3.21875 5.3125 L 1.5 5.3125 L 1.5 -12.34375 L 3.1875 -12.34375 L 3.1875 -11.015625 L 3.21875 -11.015625 C 3.351562 -12.078125 4.40625 -12.609375 6.375 -12.609375 C 7.613281 -12.609375 8.515625 -12.265625 9.078125 -11.578125 C 9.640625 -10.898438 9.921875 -10.078125 9.921875 -9.109375 L 9.921875 -4.03125 C 9.921875 -2.632812 9.65625 -1.609375 9.125 -0.953125 C 8.601562 -0.296875 7.875 0.0859375 6.9375 0.203125 C 6.75 0.222656 6.546875 0.234375 6.328125 0.234375 C 6.117188 0.242188 5.890625 0.25 5.640625 0.25 Z M 8.171875 -3.75 L 8.171875 -8.296875 C 8.171875 -9.429688 7.988281 -10.160156 7.625 -10.484375 C 7.25 -10.796875 6.585938 -10.953125 5.640625 -10.953125 C 4.703125 -10.953125 4.0625 -10.796875 3.71875 -10.484375 C 3.382812 -10.179688 3.21875 -9.453125 3.21875 -8.296875 L 3.21875 -3.75 C 3.21875 -2.707031 3.394531 -2.046875 3.75 -1.765625 C 4.09375 -1.453125 4.734375 -1.296875 5.671875 -1.296875 C 6.617188 -1.296875 7.269531 -1.453125 7.625 -1.765625 C 7.988281 -2.046875 8.171875 -2.707031 8.171875 -3.75 Z M 8.171875 -3.75 "/></g></g></g><g fill="#5798d8" fill-opacity="1"><g transform="translate(221.559916, 314.518149)"><g><path d="M 12.40625 -12.609375 C 13.476562 -12.609375 14.265625 -12.347656 14.765625 -11.828125 C 15.273438 -11.304688 15.53125 -10.382812 15.53125 -9.0625 L 15.53125 0 L 13.828125 0 L 13.828125 -8.90625 C 13.828125 -9.925781 13.519531 -10.554688 12.90625 -10.796875 C 12.632812 -10.898438 12.28125 -10.953125 11.84375 -10.953125 C 10.851562 -10.953125 10.195312 -10.804688 9.875 -10.515625 C 9.601562 -10.242188 9.46875 -9.707031 9.46875 -8.90625 L 9.46875 0 L 7.734375 0 L 7.734375 -8.90625 C 7.734375 -9.71875 7.5625 -10.257812 7.21875 -10.53125 C 6.875 -10.8125 6.390625 -10.953125 5.765625 -10.953125 C 4.722656 -10.953125 4.039062 -10.8125 3.71875 -10.53125 C 3.382812 -10.25 3.21875 -9.707031 3.21875 -8.90625 L 3.21875 0 L 1.5 0 L 1.5 -12.34375 L 3.21875 -12.34375 L 3.21875 -10.84375 C 3.40625 -12.019531 4.441406 -12.609375 6.328125 -12.609375 C 7.890625 -12.609375 8.859375 -12.046875 9.234375 -10.921875 C 9.335938 -11.359375 9.550781 -11.695312 9.875 -11.9375 C 10.195312 -12.175781 10.585938 -12.347656 11.046875 -12.453125 C 11.503906 -12.554688 11.957031 -12.609375 12.40625 -12.609375 Z M 12.40625 -12.609375 "/></g></g></g><g fill="#5798d8" fill-opacity="1"><g transform="translate(238.598489, 314.518149)"><g><path d="M 5.25 -12.609375 C 6.101562 -12.609375 6.8125 -12.484375 7.375 -12.234375 C 7.945312 -11.984375 8.378906 -11.554688 8.671875 -10.953125 C 8.960938 -10.347656 9.109375 -9.492188 9.109375 -8.390625 L 9.109375 -5.671875 L 2.890625 -5.671875 L 2.890625 -3.796875 C 2.890625 -2.828125 3.148438 -2.1875 3.671875 -1.875 C 4.203125 -1.5625 4.859375 -1.40625 5.640625 -1.40625 C 6.523438 -1.40625 7.5625 -1.609375 8.75 -2.015625 L 8.75 -0.25 C 7.570312 0.0820312 6.457031 0.25 5.40625 0.25 C 2.5625 0.25 1.140625 -1.003906 1.140625 -3.515625 L 1.140625 -8.390625 C 1.140625 -9.492188 1.300781 -10.347656 1.625 -10.953125 C 1.957031 -11.554688 2.425781 -11.984375 3.03125 -12.234375 C 3.644531 -12.484375 4.382812 -12.609375 5.25 -12.609375 Z M 5.15625 -11.078125 C 4.476562 -11.078125 3.929688 -10.960938 3.515625 -10.734375 C 3.097656 -10.503906 2.890625 -9.960938 2.890625 -9.109375 L 2.890625 -7.171875 L 7.40625 -7.171875 L 7.40625 -9.109375 C 7.40625 -9.960938 7.203125 -10.503906 6.796875 -10.734375 C 6.398438 -10.960938 5.851562 -11.078125 5.15625 -11.078125 Z M 5.15625 -11.078125 "/></g></g></g><g fill="#5798d8" fill-opacity="1"><g transform="translate(248.826724, 314.518149)"><g><path d="M 6.25 -12.609375 C 7.351562 -12.609375 8.164062 -12.351562 8.6875 -11.84375 C 9.207031 -11.34375 9.46875 -10.414062 9.46875 -9.0625 L 9.46875 0 L 7.75 0 L 7.75 -8.9375 C 7.75 -9.957031 7.445312 -10.582031 6.84375 -10.8125 C 6.570312 -10.914062 6.210938 -10.96875 5.765625 -10.96875 C 4.773438 -10.96875 4.09375 -10.820312 3.71875 -10.53125 C 3.382812 -10.25 3.21875 -9.71875 3.21875 -8.9375 L 3.21875 0 L 1.5 0 L 1.5 -12.34375 L 3.21875 -12.34375 L 3.21875 -10.84375 C 3.40625 -12.019531 4.414062 -12.609375 6.25 -12.609375 Z M 6.25 -12.609375 "/></g></g></g><g fill="#5798d8" fill-opacity="1"><g transform="translate(259.794667, 314.518149)"><g><path d="M 4 -3.46875 C 4 -2.53125 4.140625 -1.925781 4.421875 -1.65625 C 4.703125 -1.382812 5.207031 -1.25 5.9375 -1.25 C 6.039062 -1.25 6.207031 -1.265625 6.4375 -1.296875 C 6.664062 -1.335938 6.960938 -1.390625 7.328125 -1.453125 L 7.328125 0.046875 C 6.679688 0.179688 6.035156 0.25 5.390625 0.25 C 4.617188 0.25 4.003906 0.140625 3.546875 -0.078125 C 3.085938 -0.296875 2.757812 -0.6875 2.5625 -1.25 C 2.363281 -1.8125 2.265625 -2.59375 2.265625 -3.59375 L 2.265625 -10.84375 L 0.203125 -10.84375 L 0.203125 -12.34375 L 2.265625 -12.34375 L 2.265625 -16.171875 L 4 -16.171875 L 4 -12.34375 L 7.328125 -12.34375 L 7.328125 -10.84375 L 4 -10.84375 Z M 4 -3.46875 "/></g></g></g><g fill="#5798d8" fill-opacity="1"><g transform="translate(267.497734, 314.518149)"><g/></g></g><g fill="#5798d8" fill-opacity="1"><g transform="translate(271.910417, 314.518149)"><g><path d="M 6.484375 -15.125 C 5.867188 -15.125 5.296875 -15.046875 4.765625 -14.890625 C 4.242188 -14.742188 3.820312 -14.457031 3.5 -14.03125 C 3.175781 -13.601562 3.015625 -12.96875 3.015625 -12.125 L 3.015625 -4.359375 C 3.015625 -2.453125 4.195312 -1.5 6.5625 -1.5 C 7.582031 -1.5 8.703125 -1.707031 9.921875 -2.125 L 9.921875 -0.234375 C 9.378906 -0.0546875 8.8125 0.0664062 8.21875 0.140625 C 7.632812 0.210938 7.046875 0.25 6.453125 0.25 C 2.960938 0.25 1.21875 -1.242188 1.21875 -4.234375 L 1.21875 -12.09375 C 1.21875 -15.257812 2.960938 -16.84375 6.453125 -16.84375 C 7.035156 -16.84375 7.609375 -16.800781 8.171875 -16.71875 C 8.742188 -16.644531 9.300781 -16.523438 9.84375 -16.359375 L 9.84375 -14.515625 C 8.625 -14.921875 7.503906 -15.125 6.484375 -15.125 Z M 6.484375 -15.125 "/></g></g></g><g fill="#5798d8" fill-opacity="1"><g transform="translate(282.69981, 314.518149)"><g><path d="M 9.703125 -8.1875 L 9.703125 -3.90625 C 9.703125 -2.863281 9.566406 -2.023438 9.296875 -1.390625 C 9.035156 -0.753906 8.609375 -0.316406 8.015625 -0.078125 C 7.566406 0.0859375 7.164062 0.179688 6.8125 0.203125 C 6.46875 0.234375 6 0.25 5.40625 0.25 C 4.675781 0.25 4.101562 0.222656 3.6875 0.171875 C 3.269531 0.128906 2.820312 -0.046875 2.34375 -0.359375 C 1.90625 -0.628906 1.59375 -1.0625 1.40625 -1.65625 C 1.226562 -2.25 1.140625 -3 1.140625 -3.90625 L 1.140625 -8.1875 C 1.140625 -9.257812 1.265625 -10.148438 1.515625 -10.859375 C 1.773438 -11.566406 2.210938 -12.035156 2.828125 -12.265625 C 3.273438 -12.453125 3.664062 -12.554688 4 -12.578125 C 4.34375 -12.597656 4.8125 -12.609375 5.40625 -12.609375 C 6.019531 -12.609375 6.492188 -12.597656 6.828125 -12.578125 C 7.160156 -12.554688 7.554688 -12.453125 8.015625 -12.265625 C 8.441406 -12.097656 8.753906 -11.859375 8.953125 -11.546875 C 9.160156 -11.234375 9.332031 -10.800781 9.46875 -10.25 C 9.625 -9.695312 9.703125 -9.007812 9.703125 -8.1875 Z M 7.9375 -3.578125 L 7.9375 -8.578125 C 7.9375 -9.710938 7.757812 -10.414062 7.40625 -10.6875 C 7.082031 -10.957031 6.414062 -11.09375 5.40625 -11.09375 C 4.414062 -11.09375 3.753906 -10.957031 3.421875 -10.6875 C 3.078125 -10.394531 2.90625 -9.691406 2.90625 -8.578125 L 2.90625 -3.578125 C 2.90625 -3.066406 2.945312 -2.644531 3.03125 -2.3125 C 3.113281 -1.976562 3.285156 -1.734375 3.546875 -1.578125 C 3.835938 -1.410156 4.109375 -1.3125 4.359375 -1.28125 C 4.617188 -1.257812 4.96875 -1.25 5.40625 -1.25 C 5.863281 -1.25 6.21875 -1.257812 6.46875 -1.28125 C 6.726562 -1.3125 7.003906 -1.410156 7.296875 -1.578125 C 7.554688 -1.734375 7.726562 -1.976562 7.8125 -2.3125 C 7.894531 -2.644531 7.9375 -3.066406 7.9375 -3.578125 Z M 7.9375 -3.578125 "/></g></g></g><g fill="#5798d8" fill-opacity="1"><g transform="translate(293.565715, 314.518149)"><g><path d="M 4.71875 0.25 C 3.613281 0.25 2.800781 -0.00390625 2.28125 -0.515625 C 1.757812 -1.023438 1.5 -1.953125 1.5 -3.296875 L 1.5 -12.34375 L 3.21875 -12.34375 L 3.21875 -3.421875 C 3.21875 -2.378906 3.523438 -1.757812 4.140625 -1.5625 C 4.390625 -1.4375 4.742188 -1.375 5.203125 -1.375 C 6.160156 -1.375 6.828125 -1.492188 7.203125 -1.734375 C 7.566406 -1.972656 7.75 -2.40625 7.75 -3.03125 L 7.75 -12.34375 L 9.46875 -12.34375 L 9.46875 0 L 7.75 0 L 7.75 -1.5 C 7.582031 -0.332031 6.570312 0.25 4.71875 0.25 Z M 4.71875 0.25 "/></g></g></g><g fill="#5798d8" fill-opacity="1"><g transform="translate(304.533658, 314.518149)"><g><path d="M 3.109375 -10.328125 C 3.109375 -10.773438 3.25 -11.164062 3.53125 -11.5 C 3.8125 -11.84375 4.148438 -12.113281 4.546875 -12.3125 C 4.953125 -12.507812 5.316406 -12.609375 5.640625 -12.609375 L 6.484375 -12.609375 L 6.484375 -10.640625 L 5.53125 -10.640625 C 4.851562 -10.640625 4.296875 -10.53125 3.859375 -10.3125 C 3.429688 -10.09375 3.21875 -9.554688 3.21875 -8.703125 L 3.21875 0 L 1.5 0 L 1.5 -12.34375 L 3.109375 -12.34375 Z M 3.109375 -10.328125 "/></g></g></g><g fill="#5798d8" fill-opacity="1"><g transform="translate(311.241957, 314.518149)"><g><path d="M 3.90625 -5.53125 C 3.050781 -5.53125 2.347656 -5.769531 1.796875 -6.25 C 1.242188 -6.726562 0.96875 -7.492188 0.96875 -8.546875 L 0.96875 -9.703125 C 0.96875 -11.640625 2.347656 -12.609375 5.109375 -12.609375 C 5.253906 -12.609375 5.5625 -12.585938 6.03125 -12.546875 C 6.5 -12.515625 7.125 -12.46875 7.90625 -12.40625 L 7.90625 -10.734375 C 7.363281 -10.859375 6.847656 -10.945312 6.359375 -11 C 5.878906 -11.0625 5.4375 -11.09375 5.03125 -11.09375 C 4.113281 -11.09375 3.484375 -10.972656 3.140625 -10.734375 C 2.816406 -10.503906 2.65625 -10.109375 2.65625 -9.546875 L 2.65625 -8.5 C 2.65625 -7.664062 3.222656 -7.25 4.359375 -7.25 L 5.4375 -7.25 C 7.394531 -7.25 8.375 -6.28125 8.375 -4.34375 L 8.375 -3.265625 C 8.375 -1.941406 8.023438 -1.023438 7.328125 -0.515625 C 6.640625 -0.00390625 5.644531 0.25 4.34375 0.25 C 3.332031 0.25 2.265625 0.148438 1.140625 -0.046875 L 1.140625 -1.8125 C 1.910156 -1.644531 2.5625 -1.519531 3.09375 -1.4375 C 3.632812 -1.363281 4.054688 -1.328125 4.359375 -1.328125 C 5.140625 -1.328125 5.71875 -1.429688 6.09375 -1.640625 C 6.46875 -1.804688 6.65625 -2.203125 6.65625 -2.828125 L 6.65625 -4.078125 C 6.65625 -4.691406 6.5 -5.085938 6.1875 -5.265625 C 5.875 -5.441406 5.460938 -5.53125 4.953125 -5.53125 Z M 3.90625 -5.53125 "/></g></g></g><g fill="#5798d8" fill-opacity="1"><g transform="translate(320.475425, 314.518149)"><g><path d="M 5.25 -12.609375 C 6.101562 -12.609375 6.8125 -12.484375 7.375 -12.234375 C 7.945312 -11.984375 8.378906 -11.554688 8.671875 -10.953125 C 8.960938 -10.347656 9.109375 -9.492188 9.109375 -8.390625 L 9.109375 -5.671875 L 2.890625 -5.671875 L 2.890625 -3.796875 C 2.890625 -2.828125 3.148438 -2.1875 3.671875 -1.875 C 4.203125 -1.5625 4.859375 -1.40625 5.640625 -1.40625 C 6.523438 -1.40625 7.5625 -1.609375 8.75 -2.015625 L 8.75 -0.25 C 7.570312 0.0820312 6.457031 0.25 5.40625 0.25 C 2.5625 0.25 1.140625 -1.003906 1.140625 -3.515625 L 1.140625 -8.390625 C 1.140625 -9.492188 1.300781 -10.347656 1.625 -10.953125 C 1.957031 -11.554688 2.425781 -11.984375 3.03125 -12.234375 C 3.644531 -12.484375 4.382812 -12.609375 5.25 -12.609375 Z M 5.15625 -11.078125 C 4.476562 -11.078125 3.929688 -10.960938 3.515625 -10.734375 C 3.097656 -10.503906 2.890625 -9.960938 2.890625 -9.109375 L 2.890625 -7.171875 L 7.40625 -7.171875 L 7.40625 -9.109375 C 7.40625 -9.960938 7.203125 -10.503906 6.796875 -10.734375 C 6.398438 -10.960938 5.851562 -11.078125 5.15625 -11.078125 Z M 5.15625 -11.078125 "/></g></g></g></svg>