<svg xmlns="http://www.w3.org/2000/svg" xmlns:xlink="http://www.w3.org/1999/xlink" width="500" zoomAndPan="magnify" viewBox="0 0 375 374.999991" height="500" preserveAspectRatio="xMidYMid meet" version="1.0"><defs><clipPath id="e8491b1bb0"><path d="M 2.386719 45.007812 L 57 45.007812 L 57 243 L 2.386719 243 Z M 2.386719 45.007812 " clip-rule="nonzero"/></clipPath><clipPath id="e04775f0f3"><path d="M 318 45.007812 L 372.710938 45.007812 L 372.710938 243 L 318 243 Z M 318 45.007812 " clip-rule="nonzero"/></clipPath><clipPath id="062dd53762"><path d="M 37.515625 60.019531 L 337.515625 60.019531 L 337.515625 330.019531 L 37.515625 330.019531 Z M 37.515625 60.019531 " clip-rule="nonzero"/></clipPath></defs><g clip-path="url(#e8491b1bb0)"><path fill="#5798d8" d="M 46.691406 242.632812 L 56.890625 242.632812 L 56.890625 232.015625 L 50.019531 232.015625 C 37.53125 232.015625 34.410156 225.769531 34.410156 210.988281 C 34.410156 197.042969 35.65625 184.761719 35.65625 169.355469 C 35.65625 154.367188 31.910156 146.875 21.917969 144.167969 L 21.917969 143.335938 C 31.910156 140.628906 35.65625 133.132812 35.65625 118.355469 C 35.65625 102.742188 34.410156 90.667969 34.410156 76.722656 C 34.410156 61.734375 37.53125 55.695312 50.019531 55.695312 L 56.890625 55.695312 L 56.890625 44.871094 L 46.691406 44.871094 C 28.578125 44.871094 19.835938 51.949219 19.835938 75.679688 C 19.835938 92.332031 21.917969 104.40625 21.917969 120.226562 C 21.917969 128.972656 17.753906 137.921875 2.351562 137.921875 L 2.351562 149.582031 C 17.753906 149.789062 21.917969 158.738281 21.917969 167.484375 C 21.917969 182.886719 19.835938 195.167969 19.835938 212.03125 C 19.835938 235.761719 28.578125 242.632812 46.691406 242.632812 Z M 46.691406 242.632812 " fill-opacity="1" fill-rule="nonzero"/></g><g clip-path="url(#e04775f0f3)"><path fill="#5798d8" d="M 328.300781 242.632812 L 318.101562 242.632812 L 318.101562 232.015625 L 324.96875 232.015625 C 337.460938 232.015625 340.582031 225.769531 340.582031 210.988281 C 340.582031 197.042969 339.332031 184.761719 339.332031 169.355469 C 339.332031 154.367188 343.082031 146.875 353.074219 144.167969 L 353.074219 143.335938 C 343.082031 140.628906 339.332031 133.132812 339.332031 118.355469 C 339.332031 102.742188 340.582031 90.667969 340.582031 76.722656 C 340.582031 61.734375 337.460938 55.695312 324.96875 55.695312 L 318.101562 55.695312 L 318.101562 44.871094 L 328.300781 44.871094 C 346.410156 44.871094 355.15625 51.949219 355.15625 75.679688 C 355.15625 92.332031 353.074219 104.40625 353.074219 120.226562 C 353.074219 128.972656 357.238281 137.921875 372.640625 137.921875 L 372.640625 149.582031 C 357.238281 149.789062 353.074219 158.738281 353.074219 167.484375 C 353.074219 182.886719 355.15625 195.167969 355.15625 212.03125 C 355.15625 235.761719 346.410156 242.632812 328.300781 242.632812 Z M 328.300781 242.632812 " fill-opacity="1" fill-rule="nonzero"/></g><path fill="#c5ddf4" d="M 204.3125 118.222656 L 172.515625 150.019531 L 204.3125 181.816406 C 196.207031 189.960938 184.917969 195.019531 172.515625 195.019531 C 147.671875 195.019531 127.515625 174.863281 127.515625 150.019531 C 127.515625 125.175781 147.671875 105.019531 172.515625 105.019531 C 184.917969 105.019531 196.207031 110.078125 204.3125 118.222656 " fill-opacity="1" fill-rule="nonzero"/><path fill="#c5ddf4" d="M 207.515625 295.019531 L 207.515625 305.019531 C 207.515625 307.773438 205.269531 310.019531 202.515625 310.019531 L 172.515625 310.019531 C 169.761719 310.019531 167.515625 307.773438 167.515625 305.019531 L 167.515625 295.019531 L 42.515625 295.019531 L 42.515625 320.019531 C 42.515625 322.773438 44.761719 325.019531 47.515625 325.019531 L 327.511719 325.019531 C 330.265625 325.019531 332.511719 322.773438 332.511719 320.019531 L 332.511719 295.019531 L 207.515625 295.019531 " fill-opacity="1" fill-rule="nonzero"/><path fill="#c5ddf4" d="M 302.515625 235.019531 L 332.511719 295.019531 L 42.515625 295.019531 L 72.515625 235.019531 L 302.515625 235.019531 " fill-opacity="1" fill-rule="nonzero"/><g clip-path="url(#062dd53762)"><path fill="#5798d8" d="M 47.515625 320.019531 L 47.515625 300.019531 L 162.515625 300.019531 L 162.515625 305.019531 C 162.515625 310.527344 167.007812 315.019531 172.515625 315.019531 L 202.515625 315.019531 C 208.023438 315.019531 212.515625 310.527344 212.515625 305.019531 L 212.515625 300.019531 L 327.511719 300.019531 L 327.511719 320.019531 Z M 77.515625 75.019531 C 77.515625 72.265625 79.761719 70.019531 82.515625 70.019531 L 292.515625 70.019531 C 295.269531 70.019531 297.515625 72.265625 297.515625 75.019531 L 297.515625 230.019531 L 77.515625 230.019531 Z M 50.601562 290.019531 L 75.601562 240.019531 L 299.429688 240.019531 L 324.425781 290.019531 Z M 172.515625 300.019531 L 202.515625 300.019531 L 202.515625 305.019531 L 172.515625 305.019531 Z M 336.984375 292.773438 L 307.515625 233.847656 L 307.515625 75.019531 C 307.515625 66.738281 300.796875 60.019531 292.515625 60.019531 L 82.515625 60.019531 C 74.234375 60.019531 67.515625 66.738281 67.515625 75.019531 L 67.515625 233.847656 L 38.042969 292.773438 C 37.691406 293.476562 37.515625 294.238281 37.515625 295.019531 L 37.515625 320.019531 C 37.515625 325.527344 42.007812 330.019531 47.515625 330.019531 L 327.511719 330.019531 C 333.019531 330.019531 337.511719 325.527344 337.511719 320.019531 L 337.511719 295.019531 C 337.511719 294.238281 337.335938 293.476562 336.984375 292.773438 " fill-opacity="1" fill-rule="nonzero"/></g><path fill="#5798d8" d="M 77.515625 280.019531 L 87.515625 280.019531 L 87.515625 270.019531 L 77.515625 270.019531 L 77.515625 280.019531 " fill-opacity="1" fill-rule="nonzero"/><path fill="#5798d8" d="M 97.515625 280.019531 L 107.515625 280.019531 L 107.515625 270.019531 L 97.515625 270.019531 L 97.515625 280.019531 " fill-opacity="1" fill-rule="nonzero"/><path fill="#5798d8" d="M 117.515625 280.019531 L 257.515625 280.019531 L 257.515625 270.019531 L 117.515625 270.019531 L 117.515625 280.019531 " fill-opacity="1" fill-rule="nonzero"/><path fill="#5798d8" d="M 267.515625 280.019531 L 277.515625 280.019531 L 277.515625 270.019531 L 267.515625 270.019531 L 267.515625 280.019531 " fill-opacity="1" fill-rule="nonzero"/><path fill="#5798d8" d="M 287.515625 280.019531 L 297.515625 280.019531 L 297.515625 270.019531 L 287.515625 270.019531 L 287.515625 280.019531 " fill-opacity="1" fill-rule="nonzero"/><path fill="#5798d8" d="M 102.515625 260.019531 L 112.515625 260.019531 L 112.515625 250.019531 L 102.515625 250.019531 L 102.515625 260.019531 " fill-opacity="1" fill-rule="nonzero"/><path fill="#5798d8" d="M 82.515625 260.019531 L 92.515625 260.019531 L 92.515625 250.019531 L 82.515625 250.019531 L 82.515625 260.019531 " fill-opacity="1" fill-rule="nonzero"/><path fill="#5798d8" d="M 132.515625 250.019531 L 122.515625 250.019531 L 122.515625 260.019531 L 132.515625 260.019531 L 132.515625 250.019531 " fill-opacity="1" fill-rule="nonzero"/><path fill="#5798d8" d="M 152.515625 250.019531 L 142.515625 250.019531 L 142.515625 260.019531 L 152.515625 260.019531 L 152.515625 250.019531 " fill-opacity="1" fill-rule="nonzero"/><path fill="#5798d8" d="M 172.515625 250.019531 L 162.515625 250.019531 L 162.515625 260.019531 L 172.515625 260.019531 L 172.515625 250.019531 " fill-opacity="1" fill-rule="nonzero"/><path fill="#5798d8" d="M 192.515625 250.019531 L 182.515625 250.019531 L 182.515625 260.019531 L 192.515625 260.019531 L 192.515625 250.019531 " fill-opacity="1" fill-rule="nonzero"/><path fill="#5798d8" d="M 212.515625 250.019531 L 202.515625 250.019531 L 202.515625 260.019531 L 212.515625 260.019531 L 212.515625 250.019531 " fill-opacity="1" fill-rule="nonzero"/><path fill="#5798d8" d="M 232.515625 250.019531 L 222.515625 250.019531 L 222.515625 260.019531 L 232.515625 260.019531 L 232.515625 250.019531 " fill-opacity="1" fill-rule="nonzero"/><path fill="#5798d8" d="M 252.515625 250.019531 L 242.515625 250.019531 L 242.515625 260.019531 L 252.515625 260.019531 L 252.515625 250.019531 " fill-opacity="1" fill-rule="nonzero"/><path fill="#5798d8" d="M 272.515625 250.019531 L 262.515625 250.019531 L 262.515625 260.019531 L 272.515625 260.019531 L 272.515625 250.019531 " fill-opacity="1" fill-rule="nonzero"/><path fill="#5798d8" d="M 292.515625 250.019531 L 282.515625 250.019531 L 282.515625 260.019531 L 292.515625 260.019531 L 292.515625 250.019531 " fill-opacity="1" fill-rule="nonzero"/><path fill="#5798d8" d="M 277.515625 210.019531 L 97.515625 210.019531 L 97.515625 90.019531 L 277.515625 90.019531 Z M 282.515625 80.019531 L 92.515625 80.019531 C 89.761719 80.019531 87.515625 82.265625 87.515625 85.019531 L 87.515625 215.019531 C 87.515625 217.773438 89.761719 220.019531 92.515625 220.019531 L 282.515625 220.019531 C 285.269531 220.019531 287.515625 217.773438 287.515625 215.019531 L 287.515625 85.019531 C 287.515625 82.265625 285.269531 80.019531 282.515625 80.019531 " fill-opacity="1" fill-rule="nonzero"/><path fill="#5798d8" d="M 172.515625 120.019531 L 162.515625 120.019531 L 162.515625 130.019531 L 172.515625 130.019531 L 172.515625 120.019531 " fill-opacity="1" fill-rule="nonzero"/><path fill="#5798d8" d="M 172.515625 110.019531 C 181.539062 110.019531 190.074219 112.96875 197.046875 118.417969 L 168.980469 146.484375 C 167.027344 148.4375 167.027344 151.601562 168.980469 153.554688 L 197.046875 181.621094 C 190.074219 187.070312 181.539062 190.019531 172.515625 190.019531 C 150.464844 190.019531 132.515625 172.070312 132.515625 150.019531 C 132.515625 127.96875 150.464844 110.019531 172.515625 110.019531 Z M 172.515625 200.019531 C 185.914062 200.019531 198.453125 194.804688 207.867188 185.351562 C 209.800781 183.378906 209.800781 180.234375 207.847656 178.28125 L 179.585938 150.019531 L 207.847656 121.757812 C 209.800781 119.804688 209.800781 116.660156 207.867188 114.6875 C 198.453125 105.234375 185.914062 100.019531 172.515625 100.019531 C 144.9375 100.019531 122.515625 122.441406 122.515625 150.019531 C 122.515625 177.597656 144.9375 200.019531 172.515625 200.019531 " fill-opacity="1" fill-rule="nonzero"/><path fill="#5798d8" d="M 207.515625 155.019531 L 207.515625 145.019531 L 197.515625 145.019531 L 197.515625 155.019531 L 207.515625 155.019531 " fill-opacity="1" fill-rule="nonzero"/><path fill="#5798d8" d="M 227.515625 145.019531 L 217.515625 145.019531 L 217.515625 155.019531 L 227.515625 155.019531 L 227.515625 145.019531 " fill-opacity="1" fill-rule="nonzero"/><path fill="#5798d8" d="M 247.515625 145.019531 L 237.515625 145.019531 L 237.515625 155.019531 L 247.515625 155.019531 L 247.515625 145.019531 " fill-opacity="1" fill-rule="nonzero"/></svg>