<svg xmlns="http://www.w3.org/2000/svg" xmlns:xlink="http://www.w3.org/1999/xlink" width="500" zoomAndPan="magnify"
    viewBox="0 0 375 374.999991" height="500" preserveAspectRatio="xMidYMid meet" version="1.0">
    <defs>
        <g />
        <clipPath id="a6f1a540e5">
            <path
                d="M 5.980469 68.867188 L 70.9375 68.867188 L 70.9375 305.867188 L 5.980469 305.867188 Z M 5.980469 68.867188 "
                clip-rule="nonzero" />
        </clipPath>
        <clipPath id="a28bdae19e">
            <path d="M 304 69.171875 L 369.105469 69.171875 L 369.105469 306 L 304 306 Z M 304 69.171875 "
                clip-rule="nonzero" />
        </clipPath>
    </defs>
    <rect x="-37.5" width="450" fill="#ffffff" y="-37.499999" height="449.999989" fill-opacity="0" />
    <rect x="-37.5" width="450" fill="#ffffff" y="-37.499999" height="449.999989" fill-opacity="0" />
    <g fill="#5798d8" fill-opacity="1">
        <g transform="translate(49.825476, 252.65536)">
            <g>
                <path
                    d="M 87.890625 -119.328125 L 52.21875 0 L 36.765625 0 L 2.015625 -119.328125 L 16 -119.328125 L 44.671875 -16.921875 L 45.96875 -16.921875 L 74.640625 -119.328125 Z M 87.890625 -119.328125 " />
            </g>
        </g>
    </g>
    <g fill="#5798d8" fill-opacity="1">
        <g transform="translate(139.73456, 252.65536)">
            <g>
                <path
                    d="M 80.890625 -104.4375 C 78.929688 -105.039062 75.988281 -105.679688 72.0625 -106.359375 C 68.144531 -107.035156 64.160156 -107.617188 60.109375 -108.109375 C 56.066406 -108.597656 52.820312 -108.84375 50.375 -108.84375 C 31.5 -108.84375 22.0625 -101.613281 22.0625 -87.15625 L 22.0625 -30.890625 C 22.0625 -26.347656 23.007812 -22.726562 24.90625 -20.03125 C 26.8125 -17.34375 29.234375 -15.351562 32.171875 -14.0625 C 35.117188 -12.78125 38.125 -11.832031 41.1875 -11.21875 C 42.65625 -10.96875 44.21875 -10.75 45.875 -10.5625 C 47.53125 -10.382812 49.210938 -10.296875 50.921875 -10.296875 C 57.054688 -10.296875 63.617188 -11.398438 70.609375 -13.609375 L 70.609375 -55.34375 L 54.421875 -55.34375 L 49.640625 -67.84375 L 83.109375 -67.84375 L 83.109375 -3.671875 C 70.972656 0.00390625 59.941406 1.84375 50.015625 1.84375 C 41.671875 1.84375 33.972656 0.554688 26.921875 -2.015625 C 19.878906 -4.597656 14.765625 -9.441406 11.578125 -16.546875 C 9.742188 -20.585938 8.828125 -25.242188 8.828125 -30.515625 L 8.828125 -86.96875 C 8.828125 -94.445312 10.175781 -100.390625 12.875 -104.796875 C 15.570312 -109.210938 19.0625 -112.582031 23.34375 -114.90625 C 27.632812 -117.238281 32.171875 -118.894531 36.953125 -119.875 C 40.878906 -120.726562 45.234375 -121.15625 50.015625 -121.15625 C 55.523438 -121.15625 60.851562 -120.910156 66 -120.421875 C 71.15625 -119.929688 76.117188 -119.195312 80.890625 -118.21875 Z M 80.890625 -104.4375 " />
            </g>
        </g>
    </g>
    <g fill="#5798d8" fill-opacity="1">
        <g transform="translate(231.666144, 252.65536)">
            <g>
                <path
                    d="M 84.765625 -85.125 L 84.765625 -32.359375 C 84.765625 -10.785156 72.257812 0 47.25 0 L 11.578125 0 L 11.578125 -119.328125 L 47.25 -119.328125 C 72.257812 -119.328125 84.765625 -107.925781 84.765625 -85.125 Z M 72.078125 -85.3125 C 72.078125 -91.4375 70.910156 -96.03125 68.578125 -99.09375 C 66.253906 -102.164062 63.222656 -104.25 59.484375 -105.34375 C 55.742188 -106.445312 51.601562 -107 47.0625 -107 L 25 -107 L 25 -12.140625 L 46.328125 -12.140625 C 63.492188 -12.140625 72.078125 -19.003906 72.078125 -32.734375 Z M 72.078125 -85.3125 " />
            </g>
        </g>
    </g>
    <g clip-path="url(#a6f1a540e5)">
        <path fill="#5798d8"
            d="M 58.828125 305.890625 L 71.0625 305.890625 L 71.0625 293.15625 L 62.824219 293.15625 C 47.839844 293.15625 44.097656 285.664062 44.097656 267.9375 C 44.097656 251.207031 45.59375 236.476562 45.59375 218 C 45.59375 200.019531 41.101562 191.03125 29.113281 187.785156 L 29.113281 186.789062 C 41.101562 183.542969 45.59375 174.554688 45.59375 156.824219 C 45.59375 138.097656 44.097656 123.617188 44.097656 106.886719 C 44.097656 88.910156 47.839844 81.667969 62.824219 81.667969 L 71.0625 81.667969 L 71.0625 68.6875 L 58.828125 68.6875 C 37.105469 68.6875 26.617188 77.175781 26.617188 105.640625 C 26.617188 125.613281 29.113281 140.097656 29.113281 159.074219 C 29.113281 169.558594 24.121094 180.296875 5.644531 180.296875 L 5.644531 194.277344 C 24.121094 194.527344 29.113281 205.265625 29.113281 215.75 C 29.113281 234.226562 26.617188 248.960938 26.617188 269.183594 C 26.617188 297.648438 37.105469 305.890625 58.828125 305.890625 Z M 58.828125 305.890625 "
            fill-opacity="1" fill-rule="nonzero" />
    </g>
    <g clip-path="url(#a28bdae19e)">
        <path fill="#5798d8"
            d="M 316.222656 305.574219 L 304.019531 305.574219 L 304.019531 292.871094 L 312.238281 292.871094 C 327.179688 292.871094 330.914062 285.402344 330.914062 267.722656 C 330.914062 251.039062 329.417969 236.347656 329.417969 217.917969 C 329.417969 199.988281 333.902344 191.023438 345.855469 187.789062 L 345.855469 186.792969 C 333.902344 183.554688 329.417969 174.589844 329.417969 156.910156 C 329.417969 138.234375 330.914062 123.789062 330.914062 107.105469 C 330.914062 89.175781 327.179688 81.953125 312.238281 81.953125 L 304.019531 81.953125 L 304.019531 69.007812 L 316.222656 69.007812 C 337.886719 69.007812 348.34375 77.472656 348.34375 105.859375 C 348.34375 125.78125 345.855469 140.226562 345.855469 159.148438 C 345.855469 169.609375 350.835938 180.316406 369.261719 180.316406 L 369.261719 194.261719 C 350.835938 194.511719 345.855469 205.21875 345.855469 215.675781 C 345.855469 234.105469 348.34375 248.796875 348.34375 268.96875 C 348.34375 297.355469 337.886719 305.574219 316.222656 305.574219 Z M 316.222656 305.574219 "
            fill-opacity="1" fill-rule="nonzero" />
    </g>
</svg>