<svg xmlns="http://www.w3.org/2000/svg" xmlns:xlink="http://www.w3.org/1999/xlink" width="500" zoomAndPan="magnify"
    viewBox="0 0 375 374.999991" height="500" preserveAspectRatio="xMidYMid meet" version="1.0">
    <defs>
        <clipPath id="cdfa15b92a">
            <path
                d="M 6.019531 68.867188 L 70.976562 68.867188 L 70.976562 305.867188 L 6.019531 305.867188 Z M 6.019531 68.867188 "
                clip-rule="nonzero" />
        </clipPath>
        <clipPath id="7c8c6d9b50">
            <path d="M 304 69.171875 L 369.144531 69.171875 L 369.144531 306 L 304 306 Z M 304 69.171875 "
                clip-rule="nonzero" />
        </clipPath>
        <clipPath id="339f525249">
            <path d="M 38.5 69.261719 L 336.25 69.261719 L 336.25 305.511719 L 38.5 305.511719 Z M 38.5 69.261719 "
                clip-rule="nonzero" />
        </clipPath>
    </defs>
    <g clip-path="url(#cdfa15b92a)">
        <path fill="#242440"
            d="M 58.871094 305.890625 L 71.105469 305.890625 L 71.105469 293.15625 L 62.863281 293.15625 C 47.882812 293.15625 44.136719 285.664062 44.136719 267.9375 C 44.136719 251.207031 45.636719 236.476562 45.636719 218 C 45.636719 200.019531 41.140625 191.03125 29.15625 187.785156 L 29.15625 186.789062 C 41.140625 183.542969 45.636719 174.554688 45.636719 156.824219 C 45.636719 138.097656 44.136719 123.617188 44.136719 106.886719 C 44.136719 88.910156 47.882812 81.667969 62.863281 81.667969 L 71.105469 81.667969 L 71.105469 68.6875 L 58.871094 68.6875 C 37.148438 68.6875 26.660156 77.175781 26.660156 105.640625 C 26.660156 125.613281 29.15625 140.097656 29.15625 159.074219 C 29.15625 169.558594 24.164062 180.296875 5.6875 180.296875 L 5.6875 194.277344 C 24.164062 194.527344 29.15625 205.265625 29.15625 215.75 C 29.15625 234.226562 26.660156 248.960938 26.660156 269.183594 C 26.660156 297.648438 37.148438 305.890625 58.871094 305.890625 Z M 58.871094 305.890625 "
            fill-opacity="1" fill-rule="nonzero" />
    </g>
    <g clip-path="url(#7c8c6d9b50)">
        <path fill="#242440"
            d="M 316.265625 305.574219 L 304.0625 305.574219 L 304.0625 292.871094 L 312.28125 292.871094 C 327.222656 292.871094 330.957031 285.402344 330.957031 267.722656 C 330.957031 251.039062 329.460938 236.347656 329.460938 217.917969 C 329.460938 199.988281 333.945312 191.023438 345.898438 187.789062 L 345.898438 186.792969 C 333.945312 183.554688 329.460938 174.589844 329.460938 156.910156 C 329.460938 138.234375 330.957031 123.789062 330.957031 107.105469 C 330.957031 89.175781 327.222656 81.953125 312.28125 81.953125 L 304.0625 81.953125 L 304.0625 69.007812 L 316.265625 69.007812 C 337.929688 69.007812 348.386719 77.472656 348.386719 105.859375 C 348.386719 125.78125 345.898438 140.226562 345.898438 159.148438 C 345.898438 169.609375 350.878906 180.316406 369.304688 180.316406 L 369.304688 194.261719 C 350.878906 194.511719 345.898438 205.21875 345.898438 215.675781 C 345.898438 234.105469 348.386719 248.796875 348.386719 268.96875 C 348.386719 297.355469 337.929688 305.574219 316.265625 305.574219 Z M 316.265625 305.574219 "
            fill-opacity="1" fill-rule="nonzero" />
    </g>
    <path fill="#5798d8"
        d="M 227.566406 119.464844 L 157.773438 189.242188 L 227.566406 259.015625 C 209.773438 276.890625 184.996094 287.988281 157.773438 287.988281 C 103.238281 287.988281 58.996094 243.757812 58.996094 189.242188 C 58.996094 134.722656 103.238281 90.492188 157.773438 90.492188 C 184.996094 90.492188 209.773438 101.59375 227.566406 119.464844 "
        fill-opacity="1" fill-rule="nonzero" />
    <g clip-path="url(#339f525249)">
        <path fill="#242440"
            d="M -116.601562 562.292969 L -116.601562 518.40625 L 135.820312 518.40625 L 135.820312 529.378906 C 135.820312 541.464844 145.683594 551.320312 157.773438 551.320312 L 223.621094 551.320312 C 235.710938 551.320312 245.570312 541.464844 245.570312 529.378906 L 245.570312 518.40625 L 497.996094 518.40625 L 497.996094 562.292969 Z M -50.753906 24.660156 C -50.753906 18.617188 -45.824219 13.6875 -39.777344 13.6875 L 421.171875 13.6875 C 427.214844 13.6875 432.148438 18.617188 432.148438 24.660156 L 432.148438 364.796875 L -50.753906 364.796875 Z M -109.828125 496.460938 L -54.953125 386.738281 L 436.347656 386.738281 L 491.222656 496.460938 Z M 157.773438 518.40625 L 223.621094 518.40625 L 223.621094 529.378906 L 157.773438 529.378906 Z M 518.789062 502.503906 L 454.097656 373.195312 L 454.097656 24.660156 C 454.097656 6.484375 439.347656 -8.257812 421.171875 -8.257812 L -39.777344 -8.257812 C -57.957031 -8.257812 -72.703125 6.484375 -72.703125 24.660156 L -72.703125 373.195312 L -137.394531 502.503906 C -138.167969 504.046875 -138.554688 505.71875 -138.554688 507.433594 L -138.554688 562.292969 C -138.554688 574.378906 -128.691406 584.238281 -116.601562 584.238281 L 497.996094 584.238281 C 510.085938 584.238281 519.945312 574.378906 519.945312 562.292969 L 519.945312 507.433594 C 519.945312 505.71875 519.5625 504.046875 518.789062 502.503906 "
            fill-opacity="1" fill-rule="nonzero" />
        <path fill="#242440"
            d="M 388.246094 320.90625 L -6.851562 320.90625 L -6.851562 57.574219 L 388.246094 57.574219 Z M 399.222656 35.632812 L -17.828125 35.632812 C -23.871094 35.632812 -28.804688 40.558594 -28.804688 46.601562 L -28.804688 331.878906 C -28.804688 337.921875 -23.871094 342.851562 -17.828125 342.851562 L 399.222656 342.851562 C 405.265625 342.851562 410.195312 337.921875 410.195312 331.878906 L 410.195312 46.601562 C 410.195312 40.558594 405.265625 35.632812 399.222656 35.632812 "
            fill-opacity="1" fill-rule="nonzero" />
    </g>
    <path fill="#242440"
        d="M 157.773438 123.40625 L 135.820312 123.40625 L 135.820312 145.351562 L 157.773438 145.351562 L 157.773438 123.40625 "
        fill-opacity="1" fill-rule="nonzero" />
    <path fill="#242440"
        d="M 157.773438 101.464844 C 177.578125 101.464844 196.3125 107.9375 211.617188 119.894531 L 150.011719 181.484375 C 145.726562 185.769531 145.726562 192.710938 150.011719 197 L 211.617188 258.589844 C 196.3125 270.546875 177.578125 277.019531 157.773438 277.019531 C 109.371094 277.019531 69.972656 237.628906 69.972656 189.242188 C 69.972656 140.851562 109.371094 101.464844 157.773438 101.464844 Z M 157.773438 298.960938 C 187.179688 298.960938 214.703125 287.519531 235.367188 266.773438 C 239.613281 262.445312 239.613281 255.546875 235.324219 251.257812 L 173.292969 189.242188 L 235.324219 127.222656 C 239.613281 122.9375 239.613281 116.035156 235.367188 111.707031 C 214.703125 90.964844 187.179688 79.519531 157.773438 79.519531 C 97.238281 79.519531 48.023438 128.722656 48.023438 189.242188 C 48.023438 249.757812 97.238281 298.960938 157.773438 298.960938 "
        fill-opacity="1" fill-rule="nonzero" />
    <path fill="#242440"
        d="M 234.597656 200.214844 L 234.597656 178.269531 L 212.648438 178.269531 L 212.648438 200.214844 L 234.597656 200.214844 "
        fill-opacity="1" fill-rule="nonzero" />
    <path fill="#242440"
        d="M 278.496094 178.269531 L 256.546875 178.269531 L 256.546875 200.214844 L 278.496094 200.214844 L 278.496094 178.269531 "
        fill-opacity="1" fill-rule="nonzero" />
    <path fill="#242440"
        d="M 322.398438 178.269531 L 300.445312 178.269531 L 300.445312 200.214844 L 322.398438 200.214844 L 322.398438 178.269531 "
        fill-opacity="1" fill-rule="nonzero" />
</svg>