<?xml version="1.0" encoding="UTF-8"?>
<svg id="Layer_1" data-name="Layer 1" xmlns="http://www.w3.org/2000/svg" viewBox="0 0 20 20">
  <path d="m13.49517,15.66237c.12794,0,.25587-.04883.35353-.14649l4.6672-4.6672c.46731-.46828.46731-1.22906.00049-1.69685l-4.66769-4.66769c-.19532-.19532-.51174-.19532-.70706,0s-.19532.51174,0,.70706l4.6672,4.6672c.07764.07813.07764.20509-.00049.2837l-4.66672,4.66672c-.19532.19532-.19532.51174,0,.70706.09766.09766.2256.14649.35353.14649Z" fill="#fff" stroke="#000" stroke-miterlimit="10" stroke-width=".50002"/>
  <path d="m6.50488,15.66211c-.12793,0-.25586-.04883-.35352-.14648L1.48438,10.84863c-.46729-.46826-.46729-1.229-.00049-1.69678l4.66748-4.66748c.19531-.19531.51172-.19531.70703,0s.19531.51172,0,.70703l-4.66699,4.66699c-.07764.07812-.07764.20508.00049.28369l4.6665,4.6665c.19531.19531.19531.51172,0,.70703-.09766.09766-.22559.14648-.35352.14648Z" fill="#fff" stroke="#000" stroke-miterlimit="10" stroke-width=".5"/>
  <g>
    <line x1="8.5" y1="16.5" x2="11.5" y2="3.5" fill="#fff" stroke="#000" stroke-miterlimit="10" stroke-width=".5"/>
    <path d="m8.50049,17c-.03711,0-.0752-.00391-.11279-.0127-.26904-.0625-.43701-.33105-.375-.59961l3-13c.0625-.26904.3291-.4375.59961-.375.26953.06201.43652.33057.375.59961l-3,13c-.05371.23145-.25928.3877-.48682.3877Z" fill="#fff" stroke="#000" stroke-miterlimit="10" stroke-width=".5"/>
  </g>
</svg>